<?xml version="1.0" standalone="no"?>
<!DOCTYPE svg PUBLIC "-//W3C//DTD SVG 20010904//EN"
 "http://www.w3.org/TR/2001/REC-SVG-20010904/DTD/svg10.dtd">
<svg version="1.0" xmlns="http://www.w3.org/2000/svg"
 width="480.000000pt" height="600.000000pt" viewBox="0 0 480.000000 600.000000"
 preserveAspectRatio="xMidYMid meet">

<g transform="translate(0.000000,600.000000) scale(0.100000,-0.100000)"
fill="#000000" stroke="none">
<path d="M2830 5859 c-214 -88 -415 -204 -615 -354 -139 -104 -315 -256 -384
-330 l-39 -42 -73 25 c-61 21 -93 26 -179 26 -147 0 -199 -21 -301 -123 -42
-42 -81 -86 -88 -99 -12 -23 -12 -23 16 -9 45 23 174 64 226 71 56 9 112 -7
127 -34 29 -54 -6 -118 -135 -246 -95 -94 -111 -106 -231 -165 -130 -65 -133
-67 -166 -144 -17 -38 -60 -62 -238 -132 -166 -66 -204 -94 -250 -185 -25 -51
-30 -73 -30 -132 l0 -70 59 -57 c62 -61 118 -85 166 -73 14 3 66 43 115 88
165 153 279 186 640 186 200 0 290 11 393 50 120 45 196 136 213 254 l7 49 29
-34 c103 -120 155 -192 183 -253 28 -59 33 -65 38 -45 12 42 7 155 -9 239 -8
45 -13 84 -11 87 9 8 71 -29 99 -60 26 -27 28 -28 28 -8 0 29 -34 95 -82 160
-47 62 -54 63 122 -6 320 -126 467 -244 446 -359 -35 -184 -611 -360 -1363
-415 -161 -11 -465 -8 -513 6 -14 4 43 -41 125 -100 83 -59 152 -109 154 -111
2 -2 -13 -11 -35 -20 -84 -35 -263 -129 -344 -181 -417 -271 -670 -612 -757
-1023 -27 -129 -25 -408 5 -556 12 -61 28 -129 35 -150 l14 -38 6 59 c12 122
62 227 101 212 19 -7 73 -121 117 -247 70 -198 53 -401 -70 -825 -56 -194 -55
-194 84 -10 156 206 263 398 307 552 12 43 23 80 25 82 1 2 70 -47 153 -109
282 -208 360 -252 490 -276 114 -20 120 -19 64 21 -47 33 -124 118 -124 136 0
20 278 -121 438 -223 274 -173 598 -462 752 -670 36 -48 66 -84 68 -79 1 4
-15 57 -36 117 -126 351 -307 652 -528 875 l-75 77 83 30 c46 16 122 42 170
57 l87 27 72 -63 c162 -138 366 -277 525 -357 148 -74 215 -94 322 -100 108
-5 159 9 212 61 31 30 70 85 70 99 0 3 -21 -1 -47 -9 -66 -21 -212 -20 -293 1
-83 22 -229 91 -311 147 l-64 43 104 17 c110 18 175 39 231 74 71 45 67 50
-33 50 -77 0 -99 4 -137 24 -161 84 -159 196 5 277 l75 37 132 -6 c172 -7 296
-38 438 -109 88 -44 119 -66 191 -138 88 -87 145 -174 170 -257 7 -24 15 -43
19 -43 16 0 83 81 94 115 l13 37 20 -28 c41 -60 92 -207 113 -324 24 -131 -20
-336 -129 -608 -24 -59 -24 -59 64 7 92 70 251 227 316 314 70 92 141 235 163
328 33 138 13 314 -53 455 -186 398 -784 817 -1646 1157 -150 59 -413 152
-404 142 3 -3 62 -37 130 -76 349 -199 569 -379 569 -465 0 -23 -3 -25 -22
-20 -74 23 -253 46 -378 51 l-145 5 88 -25 c103 -29 147 -50 147 -70 0 -16
-26 -24 -193 -61 -65 -14 -136 -32 -159 -40 l-41 -14 -96 93 c-139 136 -240
197 -324 197 -61 0 -62 -15 -3 -44 109 -54 161 -153 137 -265 -17 -79 -46
-128 -89 -149 -141 -71 -477 -135 -717 -136 -117 -1 -147 2 -180 18 l-40 19
105 12 c113 14 251 55 350 105 33 17 60 31 60 33 0 1 -71 2 -158 2 -182 1
-241 13 -372 77 -118 57 -222 161 -278 279 -40 82 -76 199 -70 223 2 7 34 -22
72 -63 123 -134 272 -260 337 -284 15 -5 15 -2 1 41 -20 65 -20 238 2 322 66
255 203 421 396 481 68 21 234 28 279 11 20 -7 19 -9 -21 -49 -24 -23 -68 -56
-98 -72 l-55 -31 38 0 c110 0 326 64 521 154 256 119 669 390 959 629 l69 56
29 -21 c57 -43 101 -130 130 -263 19 -86 16 -409 -5 -549 -9 -60 -14 -112 -11
-114 8 -9 97 72 146 131 57 71 104 166 131 266 28 103 30 335 4 466 -52 264
-173 572 -330 838 -31 53 -56 98 -56 101 0 3 18 6 40 6 128 0 357 -158 663
-459 162 -159 162 -159 76 12 -157 312 -373 589 -554 710 l-69 46 50 21 c120
52 317 89 484 91 l85 1 -45 14 c-130 41 -458 70 -675 61 -74 -3 -123 -2 -115
3 21 11 341 121 515 176 160 51 360 105 491 133 l89 20 -275 0 c-301 1 -581
-11 -820 -35 -154 -15 -404 -55 -469 -74 -46 -13 -52 -3 -16 26 28 22 29 24 8
24 -35 0 -388 -68 -485 -94 -49 -12 -88 -20 -88 -16 0 4 25 31 55 59 62 59
125 91 199 100 l51 7 -42 22 c-23 12 -50 22 -60 22 -10 0 -24 4 -32 9 -12 8
-7 19 26 63 49 65 359 396 405 432 46 36 20 32 -92 -15z m-1100 -1148 c0 -13
-60 -83 -147 -173 l-75 -78 -89 0 c-52 0 -91 4 -94 11 -17 26 92 107 260 193
103 53 145 67 145 47z"/>
</g>
</svg>
